<svg xmlns="http://www.w3.org/2000/svg" xmlns:xlink="http://www.w3.org/1999/xlink" contentStyleType="text/css" height="1096px" preserveAspectRatio="none" style="width:738px;height:1096px;background:#FFFFFF;" version="1.1" viewBox="0 0 738 1096" width="738px" zoomAndPan="magnify"><defs/><g><!--class Produto--><g id="elem_Produto"><rect codeLine="1" fill="#F1F1F1" height="178.375" id="Produto" rx="2.5" ry="2.5" style="stroke:#181818;stroke-width:0.5;" width="262" x="469" y="730.27"/><ellipse cx="568.25" cy="746.27" fill="#ADD1B2" rx="11" ry="11" style="stroke:#181818;stroke-width:1.0;"/><path d="M571.2188,751.9106 Q570.6406,752.2075 570,752.3481 Q569.3594,752.5044 568.6563,752.5044 Q566.1563,752.5044 564.8281,750.8638 Q563.5156,749.2075 563.5156,746.0825 Q563.5156,742.9575 564.8281,741.3013 Q566.1563,739.645 568.6563,739.645 Q569.3594,739.645 570,739.8013 Q570.6563,739.9575 571.2188,740.2544 L571.2188,742.9731 Q570.5938,742.395 570,742.1294 Q569.4063,741.8481 568.7813,741.8481 Q567.4375,741.8481 566.75,742.9263 Q566.0625,743.9888 566.0625,746.0825 Q566.0625,748.1763 566.75,749.2544 Q567.4375,750.3169 568.7813,750.3169 Q569.4063,750.3169 570,750.0513 Q570.5938,749.77 571.2188,749.1919 L571.2188,751.9106 Z " fill="#000000"/><text fill="#000000" font-family="sans-serif" font-size="14" lengthAdjust="spacing" textLength="55" x="588.75" y="751.1167">Produto</text><line style="stroke:#181818;stroke-width:0.5;" x1="470" x2="730" y1="762.27" y2="762.27"/><rect fill="none" height="6" style="stroke:#C82930;stroke-width:1.0;" width="6" x="477" y="772.9184"/><text fill="#000000" font-family="sans-serif" font-size="14" lengthAdjust="spacing" textLength="100" x="489" y="779.2651">produto_id: int</text><rect fill="none" height="6" style="stroke:#C82930;stroke-width:1.0;" width="6" x="477" y="789.2153"/><text fill="#000000" font-family="sans-serif" font-size="14" lengthAdjust="spacing" textLength="89" x="489" y="795.562">nome: String</text><rect fill="none" height="6" style="stroke:#C82930;stroke-width:1.0;" width="6" x="477" y="805.5122"/><text fill="#000000" font-family="sans-serif" font-size="14" lengthAdjust="spacing" textLength="126" x="489" y="811.8589">preco: BigDecimal</text><rect fill="none" height="6" style="stroke:#C82930;stroke-width:1.0;" width="6" x="477" y="821.8091"/><text fill="#000000" font-family="sans-serif" font-size="14" lengthAdjust="spacing" textLength="105" x="489" y="828.1557">unidade: String</text><rect fill="none" height="6" style="stroke:#C82930;stroke-width:1.0;" width="6" x="477" y="838.1059"/><text fill="#000000" font-family="sans-serif" font-size="14" lengthAdjust="spacing" textLength="228" x="489" y="844.4526">categorias: ArrayList&lt;Categoria&gt;</text><line style="stroke:#181818;stroke-width:0.5;" x1="470" x2="730" y1="851.7544" y2="851.7544"/><ellipse cx="480" cy="865.4028" fill="#84BE84" rx="3" ry="3" style="stroke:#038048;stroke-width:1.0;"/><text fill="#000000" font-family="sans-serif" font-size="14" lengthAdjust="spacing" textLength="153" x="489" y="868.7495">Produto(nome, preco)</text><ellipse cx="480" cy="881.6997" fill="#84BE84" rx="3" ry="3" style="stroke:#038048;stroke-width:1.0;"/><text fill="#000000" font-family="sans-serif" font-size="14" lengthAdjust="spacing" textLength="236" x="489" y="885.0464">addCategoria(Categoria categoria)</text><ellipse cx="480" cy="897.9966" fill="#84BE84" rx="3" ry="3" style="stroke:#038048;stroke-width:1.0;"/><text fill="#000000" font-family="sans-serif" font-size="14" lengthAdjust="spacing" textLength="41" x="489" y="901.3432">crud()</text></g><!--class Categoria--><g id="elem_Categoria"><rect codeLine="14" fill="#F1F1F1" height="113.1875" id="Categoria" rx="2.5" ry="2.5" style="stroke:#181818;stroke-width:0.5;" width="233" x="483.5" y="976.79"/><ellipse cx="562.75" cy="992.79" fill="#ADD1B2" rx="11" ry="11" style="stroke:#181818;stroke-width:1.0;"/><path d="M565.7188,998.4306 Q565.1406,998.7275 564.5,998.8681 Q563.8594,999.0244 563.1563,999.0244 Q560.6563,999.0244 559.3281,997.3838 Q558.0156,995.7275 558.0156,992.6025 Q558.0156,989.4775 559.3281,987.8213 Q560.6563,986.165 563.1563,986.165 Q563.8594,986.165 564.5,986.3213 Q565.1563,986.4775 565.7188,986.7744 L565.7188,989.4931 Q565.0938,988.915 564.5,988.6494 Q563.9063,988.3681 563.2813,988.3681 Q561.9375,988.3681 561.25,989.4463 Q560.5625,990.5088 560.5625,992.6025 Q560.5625,994.6963 561.25,995.7744 Q561.9375,996.8369 563.2813,996.8369 Q563.9063,996.8369 564.5,996.5713 Q565.0938,996.29 565.7188,995.7119 L565.7188,998.4306 Z " fill="#000000"/><text fill="#000000" font-family="sans-serif" font-size="14" lengthAdjust="spacing" textLength="66" x="583.25" y="997.6367">Categoria</text><line style="stroke:#181818;stroke-width:0.5;" x1="484.5" x2="715.5" y1="1008.79" y2="1008.79"/><rect fill="none" height="6" style="stroke:#C82930;stroke-width:1.0;" width="6" x="491.5" y="1019.4384"/><text fill="#000000" font-family="sans-serif" font-size="14" lengthAdjust="spacing" textLength="109" x="503.5" y="1025.7851">categoria_id: int</text><rect fill="none" height="6" style="stroke:#C82930;stroke-width:1.0;" width="6" x="491.5" y="1035.7353"/><text fill="#000000" font-family="sans-serif" font-size="14" lengthAdjust="spacing" textLength="89" x="503.5" y="1042.082">nome: String</text><line style="stroke:#181818;stroke-width:0.5;" x1="484.5" x2="715.5" y1="1049.3838" y2="1049.3838"/><ellipse cx="494.5" cy="1063.0322" fill="#84BE84" rx="3" ry="3" style="stroke:#038048;stroke-width:1.0;"/><text fill="#000000" font-family="sans-serif" font-size="14" lengthAdjust="spacing" textLength="207" x="503.5" y="1066.3789">Categoria(categoria_id, nome)</text><ellipse cx="494.5" cy="1079.3291" fill="#84BE84" rx="3" ry="3" style="stroke:#038048;stroke-width:1.0;"/><text fill="#000000" font-family="sans-serif" font-size="14" lengthAdjust="spacing" textLength="41" x="503.5" y="1082.6757">crud()</text></g><!--class Cliente--><g id="elem_Cliente"><rect codeLine="23" fill="#F1F1F1" height="178.375" id="Cliente" rx="2.5" ry="2.5" style="stroke:#181818;stroke-width:0.5;" width="258" x="49" y="483.75"/><ellipse cx="149.75" cy="499.75" fill="#ADD1B2" rx="11" ry="11" style="stroke:#181818;stroke-width:1.0;"/><path d="M152.7188,505.3906 Q152.1406,505.6875 151.5,505.8281 Q150.8594,505.9844 150.1563,505.9844 Q147.6563,505.9844 146.3281,504.3438 Q145.0156,502.6875 145.0156,499.5625 Q145.0156,496.4375 146.3281,494.7813 Q147.6563,493.125 150.1563,493.125 Q150.8594,493.125 151.5,493.2813 Q152.1563,493.4375 152.7188,493.7344 L152.7188,496.4531 Q152.0938,495.875 151.5,495.6094 Q150.9063,495.3281 150.2813,495.3281 Q148.9375,495.3281 148.25,496.4063 Q147.5625,497.4688 147.5625,499.5625 Q147.5625,501.6563 148.25,502.7344 Q148.9375,503.7969 150.2813,503.7969 Q150.9063,503.7969 151.5,503.5313 Q152.0938,503.25 152.7188,502.6719 L152.7188,505.3906 Z " fill="#000000"/><text fill="#000000" font-family="sans-serif" font-size="14" lengthAdjust="spacing" textLength="48" x="170.25" y="504.5967">Cliente</text><line style="stroke:#181818;stroke-width:0.5;" x1="50" x2="306" y1="515.75" y2="515.75"/><rect fill="none" height="6" style="stroke:#C82930;stroke-width:1.0;" width="6" x="57" y="526.3984"/><text fill="#000000" font-family="sans-serif" font-size="14" lengthAdjust="spacing" textLength="91" x="69" y="532.7451">cliente_id: int</text><rect fill="none" height="6" style="stroke:#C82930;stroke-width:1.0;" width="6" x="57" y="542.6953"/><text fill="#000000" font-family="sans-serif" font-size="14" lengthAdjust="spacing" textLength="89" x="69" y="549.042">nome: String</text><rect fill="none" height="6" style="stroke:#C82930;stroke-width:1.0;" width="6" x="57" y="558.9922"/><text fill="#000000" font-family="sans-serif" font-size="14" lengthAdjust="spacing" textLength="216" x="69" y="565.3389">telefones: ArrayList&lt;Telefone&gt;</text><rect fill="none" height="6" style="stroke:#C82930;stroke-width:1.0;" width="6" x="57" y="575.2891"/><text fill="#000000" font-family="sans-serif" font-size="14" lengthAdjust="spacing" textLength="85" x="69" y="581.6357">email: String</text><rect fill="none" height="6" style="stroke:#C82930;stroke-width:1.0;" width="6" x="57" y="591.5859"/><text fill="#000000" font-family="sans-serif" font-size="14" lengthAdjust="spacing" textLength="106" x="69" y="597.9326">cpf_cnpj: String</text><rect fill="none" height="6" style="stroke:#C82930;stroke-width:1.0;" width="6" x="57" y="607.8828"/><text fill="#000000" font-family="sans-serif" font-size="14" lengthAdjust="spacing" textLength="232" x="69" y="614.2295">enderecos: ArrayList&lt;Endereco&gt;</text><line style="stroke:#181818;stroke-width:0.5;" x1="50" x2="306" y1="621.5313" y2="621.5313"/><ellipse cx="60" cy="635.1797" fill="#84BE84" rx="3" ry="3" style="stroke:#038048;stroke-width:1.0;"/><text fill="#000000" font-family="sans-serif" font-size="14" lengthAdjust="spacing" textLength="162" x="69" y="638.5264">Cliente(String nome, ...)</text><ellipse cx="60" cy="651.4766" fill="#84BE84" rx="3" ry="3" style="stroke:#038048;stroke-width:1.0;"/><text fill="#000000" font-family="sans-serif" font-size="14" lengthAdjust="spacing" textLength="41" x="69" y="654.8232">crud()</text></g><!--class Telefone--><g id="elem_Telefone"><rect codeLine="35" fill="#F1F1F1" height="80.5938" id="Telefone" rx="2.5" ry="2.5" style="stroke:#181818;stroke-width:0.5;" width="202" x="7" y="779.16"/><ellipse cx="73.25" cy="795.16" fill="#ADD1B2" rx="11" ry="11" style="stroke:#181818;stroke-width:1.0;"/><path d="M76.2188,800.8006 Q75.6406,801.0975 75,801.2381 Q74.3594,801.3944 73.6563,801.3944 Q71.1563,801.3944 69.8281,799.7538 Q68.5156,798.0975 68.5156,794.9725 Q68.5156,791.8475 69.8281,790.1913 Q71.1563,788.535 73.6563,788.535 Q74.3594,788.535 75,788.6913 Q75.6563,788.8475 76.2188,789.1444 L76.2188,791.8631 Q75.5938,791.285 75,791.0194 Q74.4063,790.7381 73.7813,790.7381 Q72.4375,790.7381 71.75,791.8163 Q71.0625,792.8788 71.0625,794.9725 Q71.0625,797.0663 71.75,798.1444 Q72.4375,799.2069 73.7813,799.2069 Q74.4063,799.2069 75,798.9413 Q75.5938,798.66 76.2188,798.0819 L76.2188,800.8006 Z " fill="#000000"/><text fill="#000000" font-family="sans-serif" font-size="14" lengthAdjust="spacing" textLength="61" x="93.75" y="800.0067">Telefone</text><line style="stroke:#181818;stroke-width:0.5;" x1="8" x2="208" y1="811.16" y2="811.16"/><rect fill="none" height="6" style="stroke:#C82930;stroke-width:1.0;" width="6" x="15" y="821.8084"/><text fill="#000000" font-family="sans-serif" font-size="14" lengthAdjust="spacing" textLength="106" x="27" y="828.1551">telefone: String</text><line style="stroke:#181818;stroke-width:0.5;" x1="8" x2="208" y1="835.4569" y2="835.4569"/><ellipse cx="18" cy="849.1053" fill="#84BE84" rx="3" ry="3" style="stroke:#038048;stroke-width:1.0;"/><text fill="#000000" font-family="sans-serif" font-size="14" lengthAdjust="spacing" textLength="176" x="27" y="852.452">Telefone( String telefone)</text></g><!--class Endereco--><g id="elem_Endereco"><rect codeLine="41" fill="#F1F1F1" height="194.6719" id="Endereco" rx="2.5" ry="2.5" style="stroke:#181818;stroke-width:0.5;" width="189" x="244.5" y="722.12"/><ellipse cx="301.25" cy="738.12" fill="#ADD1B2" rx="11" ry="11" style="stroke:#181818;stroke-width:1.0;"/><path d="M304.2188,743.7606 Q303.6406,744.0575 303,744.1981 Q302.3594,744.3544 301.6563,744.3544 Q299.1563,744.3544 297.8281,742.7138 Q296.5156,741.0575 296.5156,737.9325 Q296.5156,734.8075 297.8281,733.1513 Q299.1563,731.495 301.6563,731.495 Q302.3594,731.495 303,731.6513 Q303.6563,731.8075 304.2188,732.1044 L304.2188,734.8231 Q303.5938,734.245 303,733.9794 Q302.4063,733.6981 301.7813,733.6981 Q300.4375,733.6981 299.75,734.7763 Q299.0625,735.8388 299.0625,737.9325 Q299.0625,740.0263 299.75,741.1044 Q300.4375,742.1669 301.7813,742.1669 Q302.4063,742.1669 303,741.9013 Q303.5938,741.62 304.2188,741.0419 L304.2188,743.7606 Z " fill="#000000"/><text fill="#000000" font-family="sans-serif" font-size="14" lengthAdjust="spacing" textLength="67" x="321.75" y="742.9667">Endereco</text><line style="stroke:#181818;stroke-width:0.5;" x1="245.5" x2="432.5" y1="754.12" y2="754.12"/><rect fill="none" height="6" style="stroke:#C82930;stroke-width:1.0;" width="6" x="252.5" y="764.7684"/><text fill="#000000" font-family="sans-serif" font-size="14" lengthAdjust="spacing" textLength="112" x="264.5" y="771.1151">endereco_id: int</text><rect fill="none" height="6" style="stroke:#C82930;stroke-width:1.0;" width="6" x="252.5" y="781.0653"/><text fill="#000000" font-family="sans-serif" font-size="14" lengthAdjust="spacing" textLength="71" x="264.5" y="787.412">rua: String</text><rect fill="none" height="6" style="stroke:#C82930;stroke-width:1.0;" width="6" x="252.5" y="797.3622"/><text fill="#000000" font-family="sans-serif" font-size="14" lengthAdjust="spacing" textLength="103" x="264.5" y="803.7089">numero: String</text><rect fill="none" height="6" style="stroke:#C82930;stroke-width:1.0;" width="6" x="252.5" y="813.6591"/><text fill="#000000" font-family="sans-serif" font-size="14" lengthAdjust="spacing" textLength="145" x="264.5" y="820.0057">complemento: String</text><rect fill="none" height="6" style="stroke:#C82930;stroke-width:1.0;" width="6" x="252.5" y="829.9559"/><text fill="#000000" font-family="sans-serif" font-size="14" lengthAdjust="spacing" textLength="88" x="264.5" y="836.3026">bairro: String</text><rect fill="none" height="6" style="stroke:#C82930;stroke-width:1.0;" width="6" x="252.5" y="846.2528"/><text fill="#000000" font-family="sans-serif" font-size="14" lengthAdjust="spacing" textLength="95" x="264.5" y="852.5995">cidade: String</text><rect fill="none" height="6" style="stroke:#C82930;stroke-width:1.0;" width="6" x="252.5" y="862.5497"/><text fill="#000000" font-family="sans-serif" font-size="14" lengthAdjust="spacing" textLength="97" x="264.5" y="868.8964">estado: String</text><rect fill="none" height="6" style="stroke:#C82930;stroke-width:1.0;" width="6" x="252.5" y="878.8466"/><text fill="#000000" font-family="sans-serif" font-size="14" lengthAdjust="spacing" textLength="75" x="264.5" y="885.1932">cep: String</text><line style="stroke:#181818;stroke-width:0.5;" x1="245.5" x2="432.5" y1="892.495" y2="892.495"/><ellipse cx="255.5" cy="906.1434" fill="#84BE84" rx="3" ry="3" style="stroke:#038048;stroke-width:1.0;"/><text fill="#000000" font-family="sans-serif" font-size="14" lengthAdjust="spacing" textLength="163" x="264.5" y="909.4901">Endereco(String rua, ...)</text></g><!--class Pedido--><g id="elem_Pedido"><rect codeLine="54" fill="#F1F1F1" height="178.375" id="Pedido" rx="2.5" ry="2.5" style="stroke:#181818;stroke-width:0.5;" width="300" x="210" y="245.37"/><ellipse cx="331.75" cy="261.37" fill="#ADD1B2" rx="11" ry="11" style="stroke:#181818;stroke-width:1.0;"/><path d="M334.7188,267.0106 Q334.1406,267.3075 333.5,267.4481 Q332.8594,267.6044 332.1563,267.6044 Q329.6563,267.6044 328.3281,265.9638 Q327.0156,264.3075 327.0156,261.1825 Q327.0156,258.0575 328.3281,256.4013 Q329.6563,254.745 332.1563,254.745 Q332.8594,254.745 333.5,254.9013 Q334.1563,255.0575 334.7188,255.3544 L334.7188,258.0731 Q334.0938,257.495 333.5,257.2294 Q332.9063,256.9481 332.2813,256.9481 Q330.9375,256.9481 330.25,258.0263 Q329.5625,259.0888 329.5625,261.1825 Q329.5625,263.2763 330.25,264.3544 Q330.9375,265.4169 332.2813,265.4169 Q332.9063,265.4169 333.5,265.1513 Q334.0938,264.87 334.7188,264.2919 L334.7188,267.0106 Z " fill="#000000"/><text fill="#000000" font-family="sans-serif" font-size="14" lengthAdjust="spacing" textLength="48" x="352.25" y="266.2167">Pedido</text><line style="stroke:#181818;stroke-width:0.5;" x1="211" x2="509" y1="277.37" y2="277.37"/><rect fill="none" height="6" style="stroke:#C82930;stroke-width:1.0;" width="6" x="218" y="288.0184"/><text fill="#000000" font-family="sans-serif" font-size="14" lengthAdjust="spacing" textLength="93" x="230" y="294.3651">pedido_id: int</text><rect fill="none" height="6" style="stroke:#C82930;stroke-width:1.0;" width="6" x="218" y="304.3153"/><text fill="#000000" font-family="sans-serif" font-size="14" lengthAdjust="spacing" textLength="144" x="230" y="310.662">data_hora: DateTime</text><rect fill="none" height="6" style="stroke:#C82930;stroke-width:1.0;" width="6" x="218" y="320.6122"/><text fill="#000000" font-family="sans-serif" font-size="14" lengthAdjust="spacing" textLength="103" x="230" y="326.9589">cliente: Cliente</text><rect fill="none" height="6" style="stroke:#C82930;stroke-width:1.0;" width="6" x="218" y="336.9091"/><text fill="#000000" font-family="sans-serif" font-size="14" lengthAdjust="spacing" textLength="143" x="230" y="343.2557">endereco: Endereco</text><rect fill="none" height="6" style="stroke:#C82930;stroke-width:1.0;" width="6" x="218" y="353.2059"/><text fill="#000000" font-family="sans-serif" font-size="14" lengthAdjust="spacing" textLength="257" x="230" y="359.5526">itens_pedido: ArrayList&lt;ItemPedido&gt;</text><line style="stroke:#181818;stroke-width:0.5;" x1="211" x2="509" y1="366.8544" y2="366.8544"/><ellipse cx="221" cy="380.5028" fill="#84BE84" rx="3" ry="3" style="stroke:#038048;stroke-width:1.0;"/><text fill="#000000" font-family="sans-serif" font-size="14" lengthAdjust="spacing" textLength="221" x="230" y="383.8495">Pedido (DateTime data_hora, ...)</text><ellipse cx="221" cy="396.7997" fill="#84BE84" rx="3" ry="3" style="stroke:#038048;stroke-width:1.0;"/><text fill="#000000" font-family="sans-serif" font-size="14" lengthAdjust="spacing" textLength="274" x="230" y="400.1464">addItemPedido(ItemPedido itempedido)</text><ellipse cx="221" cy="413.0966" fill="#84BE84" rx="3" ry="3" style="stroke:#038048;stroke-width:1.0;"/><text fill="#000000" font-family="sans-serif" font-size="14" lengthAdjust="spacing" textLength="41" x="230" y="416.4432">crud()</text></g><!--class ItemPedido--><g id="elem_ItemPedido"><rect codeLine="67" fill="#F1F1F1" height="129.4844" id="ItemPedido" rx="2.5" ry="2.5" style="stroke:#181818;stroke-width:0.5;" width="248" x="455" y="508.19"/><ellipse cx="535.75" cy="524.19" fill="#ADD1B2" rx="11" ry="11" style="stroke:#181818;stroke-width:1.0;"/><path d="M538.7188,529.8306 Q538.1406,530.1275 537.5,530.2681 Q536.8594,530.4244 536.1563,530.4244 Q533.6563,530.4244 532.3281,528.7838 Q531.0156,527.1275 531.0156,524.0025 Q531.0156,520.8775 532.3281,519.2213 Q533.6563,517.565 536.1563,517.565 Q536.8594,517.565 537.5,517.7213 Q538.1563,517.8775 538.7188,518.1744 L538.7188,520.8931 Q538.0938,520.315 537.5,520.0494 Q536.9063,519.7681 536.2813,519.7681 Q534.9375,519.7681 534.25,520.8463 Q533.5625,521.9088 533.5625,524.0025 Q533.5625,526.0963 534.25,527.1744 Q534.9375,528.2369 536.2813,528.2369 Q536.9063,528.2369 537.5,527.9713 Q538.0938,527.69 538.7188,527.1119 L538.7188,529.8306 Z " fill="#000000"/><text fill="#000000" font-family="sans-serif" font-size="14" lengthAdjust="spacing" textLength="78" x="556.25" y="529.0367">ItemPedido</text><line style="stroke:#181818;stroke-width:0.5;" x1="456" x2="702" y1="540.19" y2="540.19"/><rect fill="none" height="6" style="stroke:#C82930;stroke-width:1.0;" width="6" x="463" y="550.8384"/><text fill="#000000" font-family="sans-serif" font-size="14" lengthAdjust="spacing" textLength="123" x="475" y="557.1851">itemPedido_id: int</text><rect fill="none" height="6" style="stroke:#C82930;stroke-width:1.0;" width="6" x="463" y="567.1353"/><text fill="#000000" font-family="sans-serif" font-size="14" lengthAdjust="spacing" textLength="119" x="475" y="573.482">produto: Produto</text><rect fill="none" height="6" style="stroke:#C82930;stroke-width:1.0;" width="6" x="463" y="583.4322"/><text fill="#000000" font-family="sans-serif" font-size="14" lengthAdjust="spacing" textLength="116" x="475" y="589.7789">quantidade: float</text><rect fill="none" height="6" style="stroke:#C82930;stroke-width:1.0;" width="6" x="463" y="599.7291"/><text fill="#000000" font-family="sans-serif" font-size="14" lengthAdjust="spacing" textLength="104" x="475" y="606.0757">desconto: float</text><line style="stroke:#181818;stroke-width:0.5;" x1="456" x2="702" y1="613.3775" y2="613.3775"/><ellipse cx="466" cy="627.0259" fill="#84BE84" rx="3" ry="3" style="stroke:#038048;stroke-width:1.0;"/><text fill="#000000" font-family="sans-serif" font-size="14" lengthAdjust="spacing" textLength="222" x="475" y="630.3726">ItemPedido(Produto produto, ...)</text></g><!--class Pagamento--><g id="elem_Pagamento"><rect codeLine="76" fill="#F1F1F1" height="178.375" id="Pagamento" rx="2.5" ry="2.5" style="stroke:#181818;stroke-width:0.5;" width="235" x="242.5" y="7"/><ellipse cx="316.25" cy="23" fill="#ADD1B2" rx="11" ry="11" style="stroke:#181818;stroke-width:1.0;"/><path d="M319.2188,28.6406 Q318.6406,28.9375 318,29.0781 Q317.3594,29.2344 316.6563,29.2344 Q314.1563,29.2344 312.8281,27.5938 Q311.5156,25.9375 311.5156,22.8125 Q311.5156,19.6875 312.8281,18.0313 Q314.1563,16.375 316.6563,16.375 Q317.3594,16.375 318,16.5313 Q318.6563,16.6875 319.2188,16.9844 L319.2188,19.7031 Q318.5938,19.125 318,18.8594 Q317.4063,18.5781 316.7813,18.5781 Q315.4375,18.5781 314.75,19.6563 Q314.0625,20.7188 314.0625,22.8125 Q314.0625,24.9063 314.75,25.9844 Q315.4375,27.0469 316.7813,27.0469 Q317.4063,27.0469 318,26.7813 Q318.5938,26.5 319.2188,25.9219 L319.2188,28.6406 Z " fill="#000000"/><text fill="#000000" font-family="sans-serif" font-size="14" lengthAdjust="spacing" textLength="79" x="336.75" y="27.8467">Pagamento</text><line style="stroke:#181818;stroke-width:0.5;" x1="243.5" x2="476.5" y1="39" y2="39"/><rect fill="none" height="6" style="stroke:#C82930;stroke-width:1.0;" width="6" x="250.5" y="49.6484"/><text fill="#000000" font-family="sans-serif" font-size="14" lengthAdjust="spacing" textLength="124" x="262.5" y="55.9951">pagamento_id: int</text><rect fill="none" height="6" style="stroke:#C82930;stroke-width:1.0;" width="6" x="250.5" y="65.9453"/><text fill="#000000" font-family="sans-serif" font-size="14" lengthAdjust="spacing" textLength="97" x="262.5" y="72.292">estado: String</text><line style="stroke:#181818;stroke-width:0.5;" x1="243.5" x2="476.5" y1="79.5938" y2="79.5938"/><rect fill="#F24D5C" height="6" style="stroke:#C82930;stroke-width:1.0;" width="6" x="250.5" y="90.2422"/><text fill="#000000" font-family="sans-serif" font-size="14" lengthAdjust="spacing" textLength="202" x="262.5" y="96.5889">tipo: String (boleto ou cartao)</text><rect fill="#F24D5C" height="6" style="stroke:#C82930;stroke-width:1.0;" width="6" x="250.5" y="106.5391"/><text fill="#000000" font-family="sans-serif" font-size="14" lengthAdjust="spacing" textLength="149" x="262.5" y="112.8857">dtVenc: Date (boleto)</text><rect fill="#F24D5C" height="6" style="stroke:#C82930;stroke-width:1.0;" width="6" x="250.5" y="122.8359"/><text fill="#000000" font-family="sans-serif" font-size="14" lengthAdjust="spacing" textLength="209" x="262.5" y="129.1826">dtPag: Date (boleto ou cartao)</text><rect fill="#F24D5C" height="6" style="stroke:#C82930;stroke-width:1.0;" width="6" x="250.5" y="139.1328"/><text fill="#000000" font-family="sans-serif" font-size="14" lengthAdjust="spacing" textLength="144" x="262.5" y="145.4795">numParc: int (cartao)</text><text fill="#000000" font-family="sans-serif" font-size="14" lengthAdjust="spacing" textLength="4" x="262.5" y="161.7764">&#160;</text><ellipse cx="253.5" cy="174.7266" fill="#84BE84" rx="3" ry="3" style="stroke:#038048;stroke-width:1.0;"/><text fill="#000000" font-family="sans-serif" font-size="14" lengthAdjust="spacing" textLength="179" x="262.5" y="178.0732">Pagamento(String tipo, ...)</text></g><!--reverse link Produto to Categoria--><g id="link_Produto_Categoria"><path codeLine="88" d="M600,921.11 C600,943.9 600,955.8 600,976.42 " fill="none" id="Produto-backto-Categoria" style="stroke:#181818;stroke-width:1.0;"/><polygon fill="#181818" points="600,909.11,596,915.11,600,921.11,604,915.11,600,909.11" style="stroke:#181818;stroke-width:1.0;"/><text fill="#000000" font-family="sans-serif" font-size="13" lengthAdjust="spacing" textLength="8" x="591.6938" y="928.6202">1</text><text fill="#000000" font-family="sans-serif" font-size="13" lengthAdjust="spacing" textLength="23" x="575.5984" y="965.6385">0..*</text></g><!--reverse link Cliente to Telefone--><g id="link_Cliente_Telefone"><path codeLine="89" d="M149.3261,674.0962 C137.8961,714.0062 128.3,747.56 119.31,778.95 " fill="none" id="Cliente-backto-Telefone" style="stroke:#181818;stroke-width:1.0;"/><polygon fill="#181818" points="152.63,662.56,147.1326,667.2268,149.3261,674.0962,154.8235,669.4294,152.63,662.56" style="stroke:#181818;stroke-width:1.0;"/><text fill="#000000" font-family="sans-serif" font-size="13" lengthAdjust="spacing" textLength="8" x="142.3814" y="682.0679">1</text><text fill="#000000" font-family="sans-serif" font-size="13" lengthAdjust="spacing" textLength="23" x="96.2785" y="768.0768">0..*</text></g><!--reverse link Cliente to Endereco--><g id="link_Cliente_Endereco"><path codeLine="90" d="M242.9499,672.5821 C255.6399,691.8521 262.53,702.31 275.41,721.87 " fill="none" id="Cliente-backto-Endereco" style="stroke:#181818;stroke-width:1.0;"/><polygon fill="#181818" points="236.35,662.56,236.3093,669.771,242.9499,672.5821,242.9906,665.3711,236.35,662.56" style="stroke:#181818;stroke-width:1.0;"/><text fill="#000000" font-family="sans-serif" font-size="13" lengthAdjust="spacing" textLength="8" x="232.5112" y="682.0679">1</text><text fill="#000000" font-family="sans-serif" font-size="13" lengthAdjust="spacing" textLength="23" x="246.6609" y="710.8963">0..*</text></g><!--link Pedido to Cliente--><g id="link_Pedido_Cliente"><path codeLine="91" d="M291.97,423.91 C277.03,443.32 264.86,459.1156 249.91,478.5356 " fill="none" id="Pedido-to-Cliente" style="stroke:#181818;stroke-width:1.0;stroke-dasharray:7.0,7.0;"/><polygon fill="#181818" points="246.25,483.29,254.9096,478.5985,249.3,479.328,248.5705,473.7184,246.25,483.29" style="stroke:#181818;stroke-width:1.0;"/><text fill="#000000" font-family="sans-serif" font-size="13" lengthAdjust="spacing" textLength="8" x="278.2301" y="443.7001">1</text><text fill="#000000" font-family="sans-serif" font-size="13" lengthAdjust="spacing" textLength="8" x="243.3699" y="472.6207">1</text></g><!--link Pedido to Endereco--><g id="link_Pedido_Endereco"><path codeLine="92" d="M356.15,424.13 C352.48,508.4 347.2401,628.8856 343.4701,715.7556 " fill="none" id="Pedido-to-Endereco" style="stroke:#181818;stroke-width:1.0;stroke-dasharray:7.0,7.0;"/><polygon fill="#181818" points="343.21,721.75,347.5965,712.9319,343.4268,716.7547,339.604,712.585,343.21,721.75" style="stroke:#181818;stroke-width:1.0;"/><text fill="#000000" font-family="sans-serif" font-size="13" lengthAdjust="spacing" textLength="8" x="347.5245" y="443.9377">1</text><text fill="#000000" font-family="sans-serif" font-size="13" lengthAdjust="spacing" textLength="8" x="335.2254" y="711.0957">1</text></g><!--reverse link Pedido to ItemPedido--><g id="link_Pedido_ItemPedido"><path codeLine="93" d="M450.0161,432.7122 C475.8961,460.6422 495.82,482.15 519.79,508.03 " fill="none" id="Pedido-backto-ItemPedido" style="stroke:#181818;stroke-width:1.0;"/><polygon fill="#181818" points="441.86,423.91,443.004,431.0298,450.0161,432.7122,448.8721,425.5924,441.86,423.91" style="stroke:#181818;stroke-width:1.0;"/><text fill="#000000" font-family="sans-serif" font-size="13" lengthAdjust="spacing" textLength="8" x="440.0645" y="443.7001">1</text><text fill="#000000" font-family="sans-serif" font-size="13" lengthAdjust="spacing" textLength="23" x="489.0561" y="497.1852">1..*</text></g><!--link Pagamento to Pedido--><g id="link_Pagamento_Pedido"><path codeLine="94" d="M360,185.54 C360,204.94 360,219.5 360,238.92 " fill="none" id="Pagamento-to-Pedido" style="stroke:#181818;stroke-width:1.0;"/><polygon fill="#181818" points="360,244.92,364,235.92,360,239.92,356,235.92,360,244.92" style="stroke:#181818;stroke-width:1.0;"/><text fill="#000000" font-family="sans-serif" font-size="13" lengthAdjust="spacing" textLength="8" x="351.6813" y="205.3301">1</text><text fill="#000000" font-family="sans-serif" font-size="13" lengthAdjust="spacing" textLength="8" x="351.6813" y="234.2515">1</text></g><!--link ItemPedido to Produto--><g id="link_ItemPedido_Produto"><path codeLine="95" d="M584.49,637.86 C586.91,666.02 589.2765,693.592 591.8965,724.092 " fill="none" id="ItemPedido-to-Produto" style="stroke:#181818;stroke-width:1.0;"/><polygon fill="#181818" points="592.41,730.07,595.625,720.7607,591.9821,725.0883,587.6544,721.4454,592.41,730.07" style="stroke:#181818;stroke-width:1.0;"/><text fill="#000000" font-family="sans-serif" font-size="13" lengthAdjust="spacing" textLength="8" x="576.653" y="657.8559">1</text><text fill="#000000" font-family="sans-serif" font-size="13" lengthAdjust="spacing" textLength="8" x="583.4502" y="719.1189">1</text></g><!--SRC=[TLJ1Rjim3BtxAuIStAusrgin1EZM7WRi4635hW4hCPa6It9b-J04-_V9acXPRW84Y4K-ak-Hb7WFuyWEreZ96NQf66lO44z7AJecjGisRHHsxAUpKfyJ2Bdfs5TvVaOk5VGic2Sj1OWIoi7XsLW9OyUUh8M_F-JeldmZwzw3_EyJiQZdMW-nm5rmW10Bkbw-Sjw8udOIzVnP_Qig7dHbxALaGjhODN4XMowu3de8sAAUBqRLUedQ8TMAfvjTZAKTzdWo6elMl2RZFa1GWUpBA3wSZbmFVqehQe5pqufSBycuT3cnh5DaR7RRjbjHKHDHOPUIxxPTXAk94G5NkOXAQX3HBJfa9oX5wKcXDHlvHWqzAYzZutW3QJ-0YuLCdHeTY2qEXwqe8aozykHIgnPD1nHIB1Sd70ez0XmSVnlhLJtxFNgL2jbwFJgQHz6IBlSgsAL3FHvZ-lLmlpjKaK6-H95GlLHR6Aocx2zK3gtpvrn8nJ8txzGAVI5ooL0eJwz8HzSw6Dydq2uDvDGRI1TGuCXDc6OmafOLHtgXKjOFOu0pX7sWIT2veEJaa8TUlvaUVO2P_BDW7GJ5rrT3k5-eUPmWnTqbZwzSEhO9_G8VmFButDJP4wT5F6d5PefPN4MoTuyxTjyqRFUvRUzt-N6gwCtP0EWwtlBJUbLfahExRVVXdnRoYkjQMCZw6BBcULLv83EcQM9ySgvMgF16iVy1]--></g></svg>