<svg xmlns="http://www.w3.org/2000/svg" xmlns:xlink="http://www.w3.org/1999/xlink" contentStyleType="text/css" height="355px" preserveAspectRatio="none" style="width:2158px;height:355px;background:#FFFFFF;" version="1.1" viewBox="0 0 2158 355" width="2158px" zoomAndPan="magnify"><defs/><g><!--entity Cliente--><g id="elem_Cliente"><ellipse cx="843.47" cy="14" fill="#F1F1F1" rx="8" ry="8" style="stroke:#181818;stroke-width:0.5;"/><path d="M843.47,22 L843.47,49 M830.47,30 L856.47,30 M843.47,49 L830.47,64 M843.47,49 L856.47,64 " fill="none" style="stroke:#181818;stroke-width:0.5;"/><text fill="#000000" font-family="sans-serif" font-size="14" lengthAdjust="spacing" textLength="48" x="819.47" y="78.4951">Cliente</text></g><!--entity Administrador--><g id="elem_Administrador"><ellipse cx="1836.47" cy="150.29" fill="#F1F1F1" rx="8" ry="8" style="stroke:#181818;stroke-width:0.5;"/><path d="M1836.47,158.29 L1836.47,185.29 M1823.47,166.29 L1849.47,166.29 M1836.47,185.29 L1823.47,200.29 M1836.47,185.29 L1849.47,200.29 " fill="none" style="stroke:#181818;stroke-width:0.5;"/><text fill="#000000" font-family="sans-serif" font-size="14" lengthAdjust="spacing" textLength="95" x="1788.97" y="214.7851">Administrador</text></g><g id="elem_UC1"><ellipse cx="1836.4667" cy="322.1213" fill="#F1F1F1" rx="90.5567" ry="20.5113" style="stroke:#181818;stroke-width:0.5;"/><text fill="#000000" font-family="sans-serif" font-size="14" lengthAdjust="spacing" textLength="143" x="1764.9667" y="324.968">Cadastro de Produto</text></g><g id="elem_UC2"><ellipse cx="2057.4704" cy="322.1221" fill="#F1F1F1" rx="95.4604" ry="21.4921" style="stroke:#181818;stroke-width:0.5;"/><text fill="#000000" font-family="sans-serif" font-size="14" lengthAdjust="spacing" textLength="154" x="1980.4704" y="324.9688">Cadastro de Categoria</text></g><g id="elem_UC3"><ellipse cx="93.4744" cy="179.9449" fill="#F1F1F1" rx="87.4744" ry="19.8949" style="stroke:#181818;stroke-width:0.5;"/><text fill="#000000" font-family="sans-serif" font-size="14" lengthAdjust="spacing" textLength="136" x="25.4744" y="182.7916">Cadastro de Cliente</text></g><g id="elem_UC4"><ellipse cx="310.4738" cy="179.9428" fill="#F1F1F1" rx="94.5638" ry="21.3128" style="stroke:#181818;stroke-width:0.5;"/><text fill="#000000" font-family="sans-serif" font-size="14" lengthAdjust="spacing" textLength="152" x="234.4738" y="182.7894">Atualização de Cliente</text></g><g id="elem_UC5"><ellipse cx="529.4718" cy="179.9364" fill="#F1F1F1" rx="89.2318" ry="20.2464" style="stroke:#181818;stroke-width:0.5;"/><text fill="#000000" font-family="sans-serif" font-size="14" lengthAdjust="spacing" textLength="140" x="459.4718" y="182.783">Remoção de Cliente</text></g><g id="elem_UC6"><ellipse cx="740.4698" cy="179.94" fill="#F1F1F1" rx="86.5998" ry="19.72" style="stroke:#181818;stroke-width:0.5;"/><text fill="#000000" font-family="sans-serif" font-size="14" lengthAdjust="spacing" textLength="134" x="673.4698" y="182.7866">Adicionar Endereço</text></g><g id="elem_UC7"><ellipse cx="946.4663" cy="179.9353" fill="#F1F1F1" rx="84.4263" ry="19.2853" style="stroke:#181818;stroke-width:0.5;"/><text fill="#000000" font-family="sans-serif" font-size="14" lengthAdjust="spacing" textLength="129" x="881.845" y="182.8239">Atualizar Endereço</text></g><g id="elem_UC8"><ellipse cx="1152.4735" cy="179.9427" fill="#F1F1F1" rx="86.1635" ry="19.6327" style="stroke:#181818;stroke-width:0.5;"/><text fill="#000000" font-family="sans-serif" font-size="14" lengthAdjust="spacing" textLength="133" x="1085.9735" y="182.7894">Remover Endereço</text></g><g id="elem_UC9"><ellipse cx="1366.4671" cy="179.9354" fill="#F1F1F1" rx="92.7771" ry="20.9554" style="stroke:#181818;stroke-width:0.5;"/><text fill="#000000" font-family="sans-serif" font-size="14" lengthAdjust="spacing" textLength="148" x="1292.4671" y="182.7821">Realização de Pedido</text></g><g id="elem_UC10"><ellipse cx="1588.4718" cy="179.9364" fill="#F1F1F1" rx="89.2318" ry="20.2464" style="stroke:#181818;stroke-width:0.5;"/><text fill="#000000" font-family="sans-serif" font-size="14" lengthAdjust="spacing" textLength="140" x="1518.4718" y="182.783">Consultar de Pedido</text></g><g id="elem_UC11"><ellipse cx="1362.4705" cy="322.1241" fill="#F1F1F1" rx="123.1205" ry="27.0241" style="stroke:#181818;stroke-width:0.5;"/><text fill="#000000" font-family="sans-serif" font-size="14" lengthAdjust="spacing" textLength="214" x="1255.4705" y="324.9708">Processamento de Pagamento</text></g><g id="elem_UC12"><ellipse cx="1615.4718" cy="322.1224" fill="#F1F1F1" rx="95.0118" ry="21.4024" style="stroke:#181818;stroke-width:0.5;"/><text fill="#000000" font-family="sans-serif" font-size="14" lengthAdjust="spacing" textLength="153" x="1538.9718" y="324.969">Geração de Relatórios</text></g><!--link Cliente to UC3--><g id="link_Cliente_UC3"><path d="M819.13,46.63 C733.19,53.98 436.34,82.38 198.47,141.79 C177.28,147.09 159.9479,152.8429 140.9379,159.9729 " fill="none" id="Cliente-to-UC3" style="stroke:#181818;stroke-width:1.0;"/><polygon fill="#181818" points="135.32,162.08,145.1515,162.6646,140.0015,160.3241,142.3421,155.1742,135.32,162.08" style="stroke:#181818;stroke-width:1.0;"/></g><!--link Cliente to UC4--><g id="link_Cliente_UC4"><path d="M819.07,49.45 C754.08,62.4 571.61,99.95 422.47,141.79 C401.86,147.58 385.1023,152.9036 365.7523,159.4636 " fill="none" id="Cliente-to-UC4" style="stroke:#181818;stroke-width:1.0;"/><polygon fill="#181818" points="360.07,161.39,369.8778,162.2886,364.8053,159.7847,367.3092,154.7122,360.07,161.39" style="stroke:#181818;stroke-width:1.0;"/></g><!--link Cliente to UC5--><g id="link_Cliente_UC5"><path d="M819.1,55.07 C765.42,78.03 642.0666,130.7906 575.8266,159.1206 " fill="none" id="Cliente-to-UC5" style="stroke:#181818;stroke-width:1.0;"/><polygon fill="#181818" points="570.31,161.48,580.1579,161.6187,574.9072,159.5138,577.012,154.2632,570.31,161.48" style="stroke:#181818;stroke-width:1.0;"/></g><!--link Cliente to UC6--><g id="link_Cliente_UC6"><path d="M819.06,76.47 C799.08,102.53 775.1325,133.7598 758.5125,155.4198 " fill="none" id="Cliente-to-UC6" style="stroke:#181818;stroke-width:1.0;"/><polygon fill="#181818" points="754.86,160.18,763.5122,155.4748,757.9038,156.2132,757.1654,150.6048,754.86,160.18" style="stroke:#181818;stroke-width:1.0;"/></g><!--link Cliente to UC7--><g id="link_Cliente_UC7"><path d="M867.88,76.47 C887.99,102.69 912.1488,134.1889 928.7288,155.8089 " fill="none" id="Cliente-to-UC7" style="stroke:#181818;stroke-width:1.0;"/><polygon fill="#181818" points="932.38,160.57,930.0772,150.9941,929.3373,156.6024,923.7291,155.8624,932.38,160.57" style="stroke:#181818;stroke-width:1.0;"/></g><!--link Cliente to UC8--><g id="link_Cliente_UC8"><path d="M867.72,55.18 C921,78.34 1043.1875,131.4379 1107.9175,159.5779 " fill="none" id="Cliente-to-UC8" style="stroke:#181818;stroke-width:1.0;"/><polygon fill="#181818" points="1113.42,161.97,1106.7609,154.7135,1108.8346,159.9766,1103.5715,162.0502,1113.42,161.97" style="stroke:#181818;stroke-width:1.0;"/></g><!--link Cliente to UC9--><g id="link_Cliente_UC9"><path d="M867.89,49.55 C932.06,62.6 1110.58,100.1 1256.47,141.79 C1276.92,147.64 1293.5293,153.0096 1312.6493,159.6196 " fill="none" id="Cliente-to-UC9" style="stroke:#181818;stroke-width:1.0;"/><polygon fill="#181818" points="1318.32,161.58,1311.1209,154.8589,1313.5944,159.9463,1308.507,162.4198,1318.32,161.58" style="stroke:#181818;stroke-width:1.0;"/></g><!--link Cliente to UC10--><g id="link_Cliente_UC10"><path d="M867.91,46.9 C952.87,55.07 1242.99,85.58 1476.47,141.79 C1498.88,147.19 1517.5562,153.0398 1537.8062,160.1198 " fill="none" id="Cliente-to-UC10" style="stroke:#181818;stroke-width:1.0;"/><polygon fill="#181818" points="1543.47,162.1,1536.2944,155.3538,1538.7502,160.4498,1533.6541,162.9055,1543.47,162.1" style="stroke:#181818;stroke-width:1.0;"/></g><!--link Administrador to UC1--><g id="link_Administrador_UC1"><path d="M1836.47,218.51 C1836.47,245.11 1836.47,273.74 1836.47,295.19 " fill="none" id="Administrador-to-UC1" style="stroke:#181818;stroke-width:1.0;"/><polygon fill="#181818" points="1836.47,301.19,1840.47,292.19,1836.47,296.19,1832.47,292.19,1836.47,301.19" style="stroke:#181818;stroke-width:1.0;"/></g><!--link Administrador to UC2--><g id="link_Administrador_UC2"><path d="M1884.43,211.36 C1927.46,238.65 1984.303,274.7067 2021.233,298.1267 " fill="none" id="Administrador-to-UC2" style="stroke:#181818;stroke-width:1.0;"/><polygon fill="#181818" points="2026.3,301.34,2020.8417,293.142,2022.0775,298.6622,2016.5573,299.898,2026.3,301.34" style="stroke:#181818;stroke-width:1.0;"/></g><!--link Administrador to UC12--><g id="link_Administrador_UC12"><path d="M1788.52,211.36 C1745.36,238.74 1688.2763,274.9355 1651.3963,298.3355 " fill="none" id="Administrador-to-UC12" style="stroke:#181818;stroke-width:1.0;"/><polygon fill="#181818" points="1646.33,301.55,1656.0724,300.1058,1650.5519,298.8713,1651.7864,293.3507,1646.33,301.55" style="stroke:#181818;stroke-width:1.0;"/></g><!--link UC9 to UC11--><g id="link_UC9_UC11"><path d="M1365.89,201.33 C1365.19,226 1364.1703,261.6224 1363.4003,288.7324 " fill="none" id="UC9-to-UC11" style="stroke:#181818;stroke-width:1.0;"/><polygon fill="#181818" points="1363.23,294.73,1367.4839,285.8472,1363.372,289.732,1359.4871,285.6201,1363.23,294.73" style="stroke:#181818;stroke-width:1.0;"/><text fill="#000000" font-family="sans-serif" font-size="13" lengthAdjust="spacing" textLength="45" x="1365.47" y="261.1569">include</text></g><!--link UC10 to UC12--><g id="link_UC10_UC12"><path d="M1592.23,200.43 C1597.3,226.76 1605.1646,267.5984 1610.3546,294.5284 " fill="none" id="UC10-to-UC12" style="stroke:#181818;stroke-width:1.0;"/><polygon fill="#181818" points="1611.49,300.42,1613.7146,290.8257,1610.5438,295.5103,1605.8591,292.3396,1611.49,300.42" style="stroke:#181818;stroke-width:1.0;"/><text fill="#000000" font-family="sans-serif" font-size="13" lengthAdjust="spacing" textLength="45" x="1604.47" y="261.1569">include</text></g><!--SRC=[TP9BQiCm48RtEiMGVQ1sy-mY44pfDWHwW44QWa2MG8ykUfqkSe0UmHUh75krBJlBR_YOt_FBoBsnK2b9sXCmVE1Pr59BvoqAOnaBZZWwWbM50kFKW22uM2E2Doj01vzL0SjMXPvknahilVA9rkNtqkiWdNr09R-nkJS_2-Pc57kbsZpHjgE5Gd9fD5furu8iDVTqmcwUEfVsqxmlcYk7iJBz-0i9AP9t75Tcj0lAny2frJRxCcYnSqxEOHrlwnRYhOFq30MCjdwG7RAlfD0tlrOQb-IIiVJmw_NfKVoKDnblCzvblC_uaF4nutWRc_nhQRuuBPVTU4LRPay5l87KN0L1h0tujuRv7m00]--></g><script xmlns=""/></svg>