<svg xmlns="http://www.w3.org/2000/svg" xmlns:xlink="http://www.w3.org/1999/xlink" contentStyleType="text/css" height="868px" preserveAspectRatio="none" style="width:680px;height:868px;background:#FFFFFF;" version="1.1" viewBox="0 0 680 868" width="680px" zoomAndPan="magnify"><defs/><g><ellipse cx="348" cy="20" fill="#222222" rx="10" ry="10" style="stroke:#222222;stroke-width:1.0;"/><rect fill="#F1F1F1" height="33.9688" rx="12.5" ry="12.5" style="stroke:#181818;stroke-width:0.5;" width="104" x="296" y="50"/><text fill="#000000" font-family="sans-serif" font-size="12" lengthAdjust="spacing" textLength="84" x="306" y="71.1387">Iniciar Pedido</text><rect fill="#F1F1F1" height="33.9688" rx="12.5" ry="12.5" style="stroke:#181818;stroke-width:0.5;" width="133" x="281.5" y="103.9688"/><text fill="#000000" font-family="sans-serif" font-size="12" lengthAdjust="spacing" textLength="113" x="291.5" y="125.1074">Selecionar Pedido</text><rect fill="#F1F1F1" height="33.9688" rx="12.5" ry="12.5" style="stroke:#181818;stroke-width:0.5;" width="133" x="281.5" y="157.9375"/><text fill="#000000" font-family="sans-serif" font-size="12" lengthAdjust="spacing" textLength="113" x="291.5" y="179.0762">Aplicar Descontos</text><rect fill="#F1F1F1" height="33.9688" rx="12.5" ry="12.5" style="stroke:#181818;stroke-width:0.5;" width="226" x="235" y="211.9063"/><text fill="#000000" font-family="sans-serif" font-size="12" lengthAdjust="spacing" textLength="206" x="245" y="233.0449">Especificar Endere&#231;o de Entrega</text><rect fill="#F1F1F1" height="33.9688" rx="12.5" ry="12.5" style="stroke:#181818;stroke-width:0.5;" width="225" x="235.5" y="265.875"/><text fill="#000000" font-family="sans-serif" font-size="12" lengthAdjust="spacing" textLength="205" x="245.5" y="287.0137">Selecionar Forma de Pagamento</text><polygon fill="#F1F1F1" points="287,319.8438,409,319.8438,421,331.8438,409,343.8438,287,343.8438,275,331.8438,287,319.8438" style="stroke:#181818;stroke-width:0.5;"/><text fill="#000000" font-family="sans-serif" font-size="11" lengthAdjust="spacing" textLength="122" x="287" y="335.6519">Forma de Pagamento</text><text fill="#000000" font-family="sans-serif" font-size="11" lengthAdjust="spacing" textLength="36" x="239" y="329.2495">Boleto</text><text fill="#000000" font-family="sans-serif" font-size="11" lengthAdjust="spacing" textLength="101" x="421" y="329.2495">Cart&#227;o de Cr&#233;dito</text><rect fill="#F1F1F1" height="33.9688" rx="12.5" ry="12.5" style="stroke:#181818;stroke-width:0.5;" width="99" x="124" y="353.8438"/><text fill="#000000" font-family="sans-serif" font-size="12" lengthAdjust="spacing" textLength="79" x="134" y="374.9824">Gerar Boleto</text><rect fill="#F1F1F1" height="33.9688" rx="12.5" ry="12.5" style="stroke:#181818;stroke-width:0.5;" width="154" x="96.5" y="407.8125"/><text fill="#000000" font-family="sans-serif" font-size="12" lengthAdjust="spacing" textLength="134" x="106.5" y="428.9512">Aguardar Pagamento</text><polygon fill="#F1F1F1" points="111,461.7813,236,461.7813,248,473.7813,236,485.7813,111,485.7813,99,473.7813,111,461.7813" style="stroke:#181818;stroke-width:0.5;"/><text fill="#000000" font-family="sans-serif" font-size="11" lengthAdjust="spacing" textLength="125" x="111" y="477.5894">Pagamento Realizado:</text><text fill="#000000" font-family="sans-serif" font-size="11" lengthAdjust="spacing" textLength="22" x="77" y="471.187">Sim</text><text fill="#000000" font-family="sans-serif" font-size="11" lengthAdjust="spacing" textLength="22" x="248" y="471.187">N&#227;o</text><rect fill="#F1F1F1" height="33.9688" rx="12.5" ry="12.5" style="stroke:#181818;stroke-width:0.5;" width="156" x="11" y="495.7813"/><text fill="#000000" font-family="sans-serif" font-size="12" lengthAdjust="spacing" textLength="136" x="21" y="516.9199">Confirmar Pagamento</text><rect fill="#F1F1F1" height="33.9688" rx="12.5" ry="12.5" style="stroke:#181818;stroke-width:0.5;" width="122" x="197" y="495.7813"/><text fill="#000000" font-family="sans-serif" font-size="12" lengthAdjust="spacing" textLength="102" x="207" y="516.9199">Cancelar Pedido</text><polygon fill="#F1F1F1" points="173.5,535.75,185.5,547.75,173.5,559.75,161.5,547.75,173.5,535.75" style="stroke:#181818;stroke-width:0.5;"/><rect fill="#F1F1F1" height="33.9688" rx="12.5" ry="12.5" style="stroke:#181818;stroke-width:0.5;" width="159" x="443" y="353.8438"/><text fill="#000000" font-family="sans-serif" font-size="12" lengthAdjust="spacing" textLength="139" x="453" y="374.9824">Processar Pagamento</text><rect fill="#F1F1F1" height="33.9688" rx="12.5" ry="12.5" style="stroke:#181818;stroke-width:0.5;" width="217" x="414" y="407.8125"/><text fill="#000000" font-family="sans-serif" font-size="12" lengthAdjust="spacing" textLength="197" x="424" y="428.9512">Armazenar N&#250;mero de Parcelas</text><polygon fill="#F1F1F1" points="459,461.7813,586,461.7813,598,473.7813,586,485.7813,459,485.7813,447,473.7813,459,461.7813" style="stroke:#181818;stroke-width:0.5;"/><text fill="#000000" font-family="sans-serif" font-size="11" lengthAdjust="spacing" textLength="127" x="459" y="477.5894">Pagamento Aprovado?</text><text fill="#000000" font-family="sans-serif" font-size="11" lengthAdjust="spacing" textLength="22" x="425" y="471.187">Sim</text><text fill="#000000" font-family="sans-serif" font-size="11" lengthAdjust="spacing" textLength="22" x="598" y="471.187">N&#227;o</text><rect fill="#F1F1F1" height="33.9688" rx="12.5" ry="12.5" style="stroke:#181818;stroke-width:0.5;" width="156" x="359" y="495.7813"/><text fill="#000000" font-family="sans-serif" font-size="12" lengthAdjust="spacing" textLength="136" x="369" y="516.9199">Confirmar Pagamento</text><rect fill="#F1F1F1" height="33.9688" rx="12.5" ry="12.5" style="stroke:#181818;stroke-width:0.5;" width="122" x="547" y="495.7813"/><text fill="#000000" font-family="sans-serif" font-size="12" lengthAdjust="spacing" textLength="102" x="557" y="516.9199">Cancelar Pedido</text><polygon fill="#F1F1F1" points="522.5,535.75,534.5,547.75,522.5,559.75,510.5,547.75,522.5,535.75" style="stroke:#181818;stroke-width:0.5;"/><polygon fill="#F1F1F1" points="348,565.75,360,577.75,348,589.75,336,577.75,348,565.75" style="stroke:#181818;stroke-width:0.5;"/><rect fill="#F1F1F1" height="33.9688" rx="12.5" ry="12.5" style="stroke:#181818;stroke-width:0.5;" width="105" x="295.5" y="609.75"/><text fill="#000000" font-family="sans-serif" font-size="12" lengthAdjust="spacing" textLength="85" x="305.5" y="630.8887">Enviar Pedido</text><rect fill="#F1F1F1" height="33.9688" rx="12.5" ry="12.5" style="stroke:#181818;stroke-width:0.5;" width="185" x="255.5" y="663.7188"/><text fill="#000000" font-family="sans-serif" font-size="12" lengthAdjust="spacing" textLength="165" x="265.5" y="684.8574">Atualizar Status do Pedido</text><polygon fill="#F1F1F1" points="302,717.6875,394,717.6875,406,729.6875,394,741.6875,302,741.6875,290,729.6875,302,717.6875" style="stroke:#181818;stroke-width:0.5;"/><text fill="#000000" font-family="sans-serif" font-size="11" lengthAdjust="spacing" textLength="92" x="302" y="733.4956">Pedido Enviado?</text><text fill="#000000" font-family="sans-serif" font-size="11" lengthAdjust="spacing" textLength="22" x="268" y="727.0933">Sim</text><text fill="#000000" font-family="sans-serif" font-size="11" lengthAdjust="spacing" textLength="22" x="406" y="727.0933">N&#227;o</text><rect fill="#F1F1F1" height="33.9688" rx="12.5" ry="12.5" style="stroke:#181818;stroke-width:0.5;" width="122" x="216" y="751.6875"/><text fill="#000000" font-family="sans-serif" font-size="12" lengthAdjust="spacing" textLength="102" x="226" y="772.8262">Entregar Pedido</text><rect fill="#F1F1F1" height="33.9688" rx="12.5" ry="12.5" style="stroke:#181818;stroke-width:0.5;" width="122" x="358" y="751.6875"/><text fill="#000000" font-family="sans-serif" font-size="12" lengthAdjust="spacing" textLength="102" x="368" y="772.8262">Cancelar Pedido</text><polygon fill="#F1F1F1" points="348,791.6563,360,803.6563,348,815.6563,336,803.6563,348,791.6563" style="stroke:#181818;stroke-width:0.5;"/><ellipse cx="348" cy="846.6563" fill="none" rx="11" ry="11" style="stroke:#222222;stroke-width:1.0;"/><ellipse cx="348" cy="846.6563" fill="#222222" rx="6" ry="6" style="stroke:#222222;stroke-width:1.0;"/><line style="stroke:#181818;stroke-width:1.0;" x1="348" x2="348" y1="30" y2="50"/><polygon fill="#181818" points="344,40,348,50,352,40,348,44" style="stroke:#181818;stroke-width:1.0;"/><line style="stroke:#181818;stroke-width:1.0;" x1="348" x2="348" y1="83.9688" y2="103.9688"/><polygon fill="#181818" points="344,93.9688,348,103.9688,352,93.9688,348,97.9688" style="stroke:#181818;stroke-width:1.0;"/><line style="stroke:#181818;stroke-width:1.0;" x1="348" x2="348" y1="137.9375" y2="157.9375"/><polygon fill="#181818" points="344,147.9375,348,157.9375,352,147.9375,348,151.9375" style="stroke:#181818;stroke-width:1.0;"/><line style="stroke:#181818;stroke-width:1.0;" x1="348" x2="348" y1="191.9063" y2="211.9063"/><polygon fill="#181818" points="344,201.9063,348,211.9063,352,201.9063,348,205.9063" style="stroke:#181818;stroke-width:1.0;"/><line style="stroke:#181818;stroke-width:1.0;" x1="348" x2="348" y1="245.875" y2="265.875"/><polygon fill="#181818" points="344,255.875,348,265.875,352,255.875,348,259.875" style="stroke:#181818;stroke-width:1.0;"/><line style="stroke:#181818;stroke-width:1.0;" x1="173.5" x2="173.5" y1="387.8125" y2="407.8125"/><polygon fill="#181818" points="169.5,397.8125,173.5,407.8125,177.5,397.8125,173.5,401.8125" style="stroke:#181818;stroke-width:1.0;"/><line style="stroke:#181818;stroke-width:1.0;" x1="99" x2="89" y1="473.7813" y2="473.7813"/><line style="stroke:#181818;stroke-width:1.0;" x1="89" x2="89" y1="473.7813" y2="495.7813"/><polygon fill="#181818" points="85,485.7813,89,495.7813,93,485.7813,89,489.7813" style="stroke:#181818;stroke-width:1.0;"/><line style="stroke:#181818;stroke-width:1.0;" x1="248" x2="258" y1="473.7813" y2="473.7813"/><line style="stroke:#181818;stroke-width:1.0;" x1="258" x2="258" y1="473.7813" y2="495.7813"/><polygon fill="#181818" points="254,485.7813,258,495.7813,262,485.7813,258,489.7813" style="stroke:#181818;stroke-width:1.0;"/><line style="stroke:#181818;stroke-width:1.0;" x1="89" x2="89" y1="529.75" y2="547.75"/><line style="stroke:#181818;stroke-width:1.0;" x1="89" x2="161.5" y1="547.75" y2="547.75"/><polygon fill="#181818" points="151.5,543.75,161.5,547.75,151.5,551.75,155.5,547.75" style="stroke:#181818;stroke-width:1.0;"/><line style="stroke:#181818;stroke-width:1.0;" x1="258" x2="258" y1="529.75" y2="547.75"/><line style="stroke:#181818;stroke-width:1.0;" x1="258" x2="185.5" y1="547.75" y2="547.75"/><polygon fill="#181818" points="195.5,543.75,185.5,547.75,195.5,551.75,191.5,547.75" style="stroke:#181818;stroke-width:1.0;"/><line style="stroke:#181818;stroke-width:1.0;" x1="173.5" x2="173.5" y1="441.7813" y2="461.7813"/><polygon fill="#181818" points="169.5,451.7813,173.5,461.7813,177.5,451.7813,173.5,455.7813" style="stroke:#181818;stroke-width:1.0;"/><line style="stroke:#181818;stroke-width:1.0;" x1="522.5" x2="522.5" y1="387.8125" y2="407.8125"/><polygon fill="#181818" points="518.5,397.8125,522.5,407.8125,526.5,397.8125,522.5,401.8125" style="stroke:#181818;stroke-width:1.0;"/><line style="stroke:#181818;stroke-width:1.0;" x1="447" x2="437" y1="473.7813" y2="473.7813"/><line style="stroke:#181818;stroke-width:1.0;" x1="437" x2="437" y1="473.7813" y2="495.7813"/><polygon fill="#181818" points="433,485.7813,437,495.7813,441,485.7813,437,489.7813" style="stroke:#181818;stroke-width:1.0;"/><line style="stroke:#181818;stroke-width:1.0;" x1="598" x2="608" y1="473.7813" y2="473.7813"/><line style="stroke:#181818;stroke-width:1.0;" x1="608" x2="608" y1="473.7813" y2="495.7813"/><polygon fill="#181818" points="604,485.7813,608,495.7813,612,485.7813,608,489.7813" style="stroke:#181818;stroke-width:1.0;"/><line style="stroke:#181818;stroke-width:1.0;" x1="437" x2="437" y1="529.75" y2="547.75"/><line style="stroke:#181818;stroke-width:1.0;" x1="437" x2="510.5" y1="547.75" y2="547.75"/><polygon fill="#181818" points="500.5,543.75,510.5,547.75,500.5,551.75,504.5,547.75" style="stroke:#181818;stroke-width:1.0;"/><line style="stroke:#181818;stroke-width:1.0;" x1="608" x2="608" y1="529.75" y2="547.75"/><line style="stroke:#181818;stroke-width:1.0;" x1="608" x2="534.5" y1="547.75" y2="547.75"/><polygon fill="#181818" points="544.5,543.75,534.5,547.75,544.5,551.75,540.5,547.75" style="stroke:#181818;stroke-width:1.0;"/><line style="stroke:#181818;stroke-width:1.0;" x1="522.5" x2="522.5" y1="441.7813" y2="461.7813"/><polygon fill="#181818" points="518.5,451.7813,522.5,461.7813,526.5,451.7813,522.5,455.7813" style="stroke:#181818;stroke-width:1.0;"/><line style="stroke:#181818;stroke-width:1.0;" x1="275" x2="173.5" y1="331.8438" y2="331.8438"/><line style="stroke:#181818;stroke-width:1.0;" x1="173.5" x2="173.5" y1="331.8438" y2="353.8438"/><polygon fill="#181818" points="169.5,343.8438,173.5,353.8438,177.5,343.8438,173.5,347.8438" style="stroke:#181818;stroke-width:1.0;"/><line style="stroke:#181818;stroke-width:1.0;" x1="421" x2="522.5" y1="331.8438" y2="331.8438"/><line style="stroke:#181818;stroke-width:1.0;" x1="522.5" x2="522.5" y1="331.8438" y2="353.8438"/><polygon fill="#181818" points="518.5,343.8438,522.5,353.8438,526.5,343.8438,522.5,347.8438" style="stroke:#181818;stroke-width:1.0;"/><line style="stroke:#181818;stroke-width:1.0;" x1="173.5" x2="173.5" y1="559.75" y2="577.75"/><line style="stroke:#181818;stroke-width:1.0;" x1="173.5" x2="336" y1="577.75" y2="577.75"/><polygon fill="#181818" points="326,573.75,336,577.75,326,581.75,330,577.75" style="stroke:#181818;stroke-width:1.0;"/><line style="stroke:#181818;stroke-width:1.0;" x1="522.5" x2="522.5" y1="559.75" y2="577.75"/><line style="stroke:#181818;stroke-width:1.0;" x1="522.5" x2="360" y1="577.75" y2="577.75"/><polygon fill="#181818" points="370,573.75,360,577.75,370,581.75,366,577.75" style="stroke:#181818;stroke-width:1.0;"/><line style="stroke:#181818;stroke-width:1.0;" x1="348" x2="348" y1="299.8438" y2="319.8438"/><polygon fill="#181818" points="344,309.8438,348,319.8438,352,309.8438,348,313.8438" style="stroke:#181818;stroke-width:1.0;"/><line style="stroke:#181818;stroke-width:1.0;" x1="348" x2="348" y1="589.75" y2="609.75"/><polygon fill="#181818" points="344,599.75,348,609.75,352,599.75,348,603.75" style="stroke:#181818;stroke-width:1.0;"/><line style="stroke:#181818;stroke-width:1.0;" x1="348" x2="348" y1="643.7188" y2="663.7188"/><polygon fill="#181818" points="344,653.7188,348,663.7188,352,653.7188,348,657.7188" style="stroke:#181818;stroke-width:1.0;"/><line style="stroke:#181818;stroke-width:1.0;" x1="290" x2="277" y1="729.6875" y2="729.6875"/><line style="stroke:#181818;stroke-width:1.0;" x1="277" x2="277" y1="729.6875" y2="751.6875"/><polygon fill="#181818" points="273,741.6875,277,751.6875,281,741.6875,277,745.6875" style="stroke:#181818;stroke-width:1.0;"/><line style="stroke:#181818;stroke-width:1.0;" x1="406" x2="419" y1="729.6875" y2="729.6875"/><line style="stroke:#181818;stroke-width:1.0;" x1="419" x2="419" y1="729.6875" y2="751.6875"/><polygon fill="#181818" points="415,741.6875,419,751.6875,423,741.6875,419,745.6875" style="stroke:#181818;stroke-width:1.0;"/><line style="stroke:#181818;stroke-width:1.0;" x1="277" x2="277" y1="785.6563" y2="803.6563"/><line style="stroke:#181818;stroke-width:1.0;" x1="277" x2="336" y1="803.6563" y2="803.6563"/><polygon fill="#181818" points="326,799.6563,336,803.6563,326,807.6563,330,803.6563" style="stroke:#181818;stroke-width:1.0;"/><line style="stroke:#181818;stroke-width:1.0;" x1="419" x2="419" y1="785.6563" y2="803.6563"/><line style="stroke:#181818;stroke-width:1.0;" x1="419" x2="360" y1="803.6563" y2="803.6563"/><polygon fill="#181818" points="370,799.6563,360,803.6563,370,807.6563,366,803.6563" style="stroke:#181818;stroke-width:1.0;"/><line style="stroke:#181818;stroke-width:1.0;" x1="348" x2="348" y1="697.6875" y2="717.6875"/><polygon fill="#181818" points="344,707.6875,348,717.6875,352,707.6875,348,711.6875" style="stroke:#181818;stroke-width:1.0;"/><line style="stroke:#181818;stroke-width:1.0;" x1="348" x2="348" y1="815.6563" y2="835.6563"/><polygon fill="#181818" points="344,825.6563,348,835.6563,352,825.6563,348,829.6563" style="stroke:#181818;stroke-width:1.0;"/><!--SRC=[hL8vRiCm4EpvYktYV44g0iLnWZI64RzW8QuS0X9NMD8k_9qKWR-GLX_BafOZNsKQ4HeEPsQFXvLmJI4mM8OLMQS7nk4020iVXJPeGaI9fdZthdOe8waqnPfQgXtxSwpgMrShy4AXPXyvABO8lVAQZ2-y9Q7XM-teP70fzShIORfTuGOxKetIk0Pcj_WZn4_oC7lcblJF043nHg8QHwJCIBNPejYKST9JF4d-8V11sBezMYvEeclNPSKaCMVVE7M_rg0s4CoMmnTFLFGrjMSTIJHlNMEEvBcsKlcfZhaC1-jEmSSnt7WKbHhlANLcEVnq97piWIIRSAUKgXVUQILF_r_9M4Z-wbZzxc8TghZDJHHOHupRC2rKQV84n-tAx-xaAyPrc2IlKjr66gE4oFql]--></g></svg>