<svg xmlns="http://www.w3.org/2000/svg" xmlns:xlink="http://www.w3.org/1999/xlink" contentStyleType="text/css" height="877px" preserveAspectRatio="none" style="width:719px;height:877px;background:#FFFFFF;" version="1.1" viewBox="0 0 719 877" width="719px" zoomAndPan="magnify"><defs/><g><ellipse cx="534.5" cy="16" fill="#222222" rx="10" ry="10" style="stroke:#222222;stroke-width:1.0;"/><g id="PedidoCriado"><rect fill="#F1F1F1" height="50" rx="12.5" ry="12.5" style="stroke:#181818;stroke-width:0.5;" width="112" x="478.5" y="103"/><line style="stroke:#181818;stroke-width:0.5;" x1="478.5" x2="590.5" y1="129.2969" y2="129.2969"/><text fill="#000000" font-family="sans-serif" font-size="14" lengthAdjust="spacing" textLength="92" x="488.5" y="120.9951">PedidoCriado</text></g><g id="AguardandoPagamento"><rect fill="#F1F1F1" height="50" rx="12.5" ry="12.5" style="stroke:#181818;stroke-width:0.5;" width="183" x="371" y="230"/><line style="stroke:#181818;stroke-width:0.5;" x1="371" x2="554" y1="256.2969" y2="256.2969"/><text fill="#000000" font-family="sans-serif" font-size="14" lengthAdjust="spacing" textLength="163" x="381" y="247.9951">AguardandoPagamento</text></g><g id="PagamentoConfirmado"><rect fill="#F1F1F1" height="50" rx="12.5" ry="12.5" style="stroke:#181818;stroke-width:0.5;" width="178" x="224.5" y="357"/><line style="stroke:#181818;stroke-width:0.5;" x1="224.5" x2="402.5" y1="383.2969" y2="383.2969"/><text fill="#000000" font-family="sans-serif" font-size="14" lengthAdjust="spacing" textLength="158" x="234.5" y="374.9951">PagamentoConfirmado</text></g><g id="PedidoEnviado"><rect fill="#F1F1F1" height="50" rx="12.5" ry="12.5" style="stroke:#181818;stroke-width:0.5;" width="122" x="129.5" y="484"/><line style="stroke:#181818;stroke-width:0.5;" x1="129.5" x2="251.5" y1="510.2969" y2="510.2969"/><text fill="#000000" font-family="sans-serif" font-size="14" lengthAdjust="spacing" textLength="102" x="139.5" y="501.9951">PedidoEnviado</text></g><g id="PedidoEntrege"><rect fill="#F1F1F1" height="50" rx="12.5" ry="12.5" style="stroke:#181818;stroke-width:0.5;" width="123" x="9" y="611"/><line style="stroke:#181818;stroke-width:0.5;" x1="9" x2="132" y1="637.2969" y2="637.2969"/><text fill="#000000" font-family="sans-serif" font-size="14" lengthAdjust="spacing" textLength="103" x="19" y="628.9951">PedidoEntrege</text></g><g id="PedidoCancelado"><rect fill="#F1F1F1" height="50" rx="12.5" ry="12.5" style="stroke:#181818;stroke-width:0.5;" width="141" x="251" y="611"/><line style="stroke:#181818;stroke-width:0.5;" x1="251" x2="392" y1="637.2969" y2="637.2969"/><text fill="#000000" font-family="sans-serif" font-size="14" lengthAdjust="spacing" textLength="121" x="261" y="628.9951">PedidoCancelado</text></g><g id="PedidoDevolvido"><rect fill="#F1F1F1" height="50" rx="12.5" ry="12.5" style="stroke:#181818;stroke-width:0.5;" width="135" x="7" y="738"/><line style="stroke:#181818;stroke-width:0.5;" x1="7" x2="142" y1="764.2969" y2="764.2969"/><text fill="#000000" font-family="sans-serif" font-size="14" lengthAdjust="spacing" textLength="115" x="17" y="755.9951">PedidoDevolvido</text></g><ellipse cx="198.5" cy="860" fill="none" rx="11" ry="11" style="stroke:#222222;stroke-width:1.0;"/><ellipse cx="198.5" cy="860" fill="#222222" rx="6" ry="6" style="stroke:#222222;stroke-width:1.0;"/><!--link *start* to PedidoCriado--><g id="link_*start*_PedidoCriado"><path d="M534.5,26.38 C534.5,43.11 534.5,72.59 534.5,96.63 " fill="none" id="*start*-to-PedidoCriado" style="stroke:#181818;stroke-width:1.0;"/><polygon fill="#181818" points="534.5,102.63,538.5,93.63,534.5,97.63,530.5,93.63,534.5,102.63" style="stroke:#181818;stroke-width:1.0;"/><text fill="#000000" font-family="sans-serif" font-size="13" lengthAdjust="spacing" textLength="77" x="535.5" y="69.0669">Criar Pedido</text></g><!--link PedidoCriado to AguardandoPagamento--><g id="link_PedidoCriado_AguardandoPagamento"><path d="M512.59,153.47 C505.29,162.37 497.5,172.76 491.5,183 C482.88,197.7 477.6698,209.8074 472.5798,223.8874 " fill="none" id="PedidoCriado-to-AguardandoPagamento" style="stroke:#181818;stroke-width:1.0;"/><polygon fill="#181818" points="470.54,229.53,477.3615,222.426,472.2399,224.8278,469.838,219.7062,470.54,229.53" style="stroke:#181818;stroke-width:1.0;"/><text fill="#000000" font-family="sans-serif" font-size="13" lengthAdjust="spacing" textLength="88" x="492.5" y="196.0669">Pedido Criado</text></g><!--link AguardandoPagamento to PagamentoConfirmado--><g id="link_AguardandoPagamento_PagamentoConfirmado"><path d="M370.79,269.1 C347.37,277.05 324.79,289.75 310.5,310 C301.11,323.3 300.906,335.9112 304.166,350.6712 " fill="none" id="AguardandoPagamento-to-PagamentoConfirmado" style="stroke:#181818;stroke-width:1.0;"/><polygon fill="#181818" points="305.46,356.53,307.4248,346.8791,304.3817,351.6477,299.6131,348.6045,305.46,356.53" style="stroke:#181818;stroke-width:1.0;"/><text fill="#000000" font-family="sans-serif" font-size="13" lengthAdjust="spacing" textLength="141" x="311.5" y="323.0669">Confirmar Pagamento</text></g><!--link PagamentoConfirmado to PedidoEnviado--><g id="link_PagamentoConfirmado_PedidoEnviado"><path d="M244.11,407.41 C230.33,415.03 217.15,424.75 207.5,437 C197.07,450.24 193.5363,462.9249 191.9263,477.7849 " fill="none" id="PagamentoConfirmado-to-PedidoEnviado" style="stroke:#181818;stroke-width:1.0;"/><polygon fill="#181818" points="191.28,483.75,196.2262,475.2332,191.8186,478.7791,188.2727,474.3715,191.28,483.75" style="stroke:#181818;stroke-width:1.0;"/><text fill="#000000" font-family="sans-serif" font-size="13" lengthAdjust="spacing" textLength="86" x="208.5" y="450.0669">Enviar Pedido</text></g><!--link PedidoEnviado to PedidoEntrege--><g id="link_PedidoEnviado_PedidoEntrege"><path d="M129.22,517.41 C99.96,524.37 67.48,537.87 49.5,564 C39.96,577.87 42.8252,590.8627 50.6852,605.3927 " fill="none" id="PedidoEnviado-to-PedidoEntrege" style="stroke:#181818;stroke-width:1.0;"/><polygon fill="#181818" points="53.54,610.67,52.7761,600.8508,51.161,606.2722,45.7396,604.6572,53.54,610.67" style="stroke:#181818;stroke-width:1.0;"/><text fill="#000000" font-family="sans-serif" font-size="13" lengthAdjust="spacing" textLength="99" x="50.5" y="577.0669">Receber Pedido</text></g><!--link PedidoCriado to PedidoCancelado--><g id="link_PedidoCriado_PedidoCancelado"><path d="M562.05,153.39 C570.52,162.04 579.26,172.31 585.5,183 C602.16,211.53 607.5,220.96 607.5,254 C607.5,254 607.5,254 607.5,510 C607.5,603.75 482.876,627.4608 398.186,633.2508 " fill="none" id="PedidoCriado-to-PedidoCancelado" style="stroke:#181818;stroke-width:1.0;"/><polygon fill="#181818" points="392.2,633.66,401.4519,637.0368,397.1884,633.319,400.9062,629.0554,392.2,633.66" style="stroke:#181818;stroke-width:1.0;"/><text fill="#000000" font-family="sans-serif" font-size="13" lengthAdjust="spacing" textLength="103" x="608.5" y="386.5669">Cancelar Pedido</text></g><!--link AguardandoPagamento to PedidoCancelado--><g id="link_AguardandoPagamento_PedidoCancelado"><path d="M465.21,280.32 C469.71,330.78 474.29,449.17 430.5,534 C414.17,565.63 388.6031,588.9546 364.0531,607.0146 " fill="none" id="AguardandoPagamento-to-PedidoCancelado" style="stroke:#181818;stroke-width:1.0;"/><polygon fill="#181818" points="359.22,610.57,368.8399,608.4589,363.2476,607.6071,364.0994,602.0148,359.22,610.57" style="stroke:#181818;stroke-width:1.0;"/><text fill="#000000" font-family="sans-serif" font-size="13" lengthAdjust="spacing" textLength="103" x="460.5" y="450.0669">Cancelar Pedido</text></g><!--link PagamentoConfirmado to PedidoCancelado--><g id="link_PagamentoConfirmado_PedidoCancelado"><path d="M314.27,407.16 C315.79,455.21 319,556.253 320.53,604.543 " fill="none" id="PagamentoConfirmado-to-PedidoCancelado" style="stroke:#181818;stroke-width:1.0;"/><polygon fill="#181818" points="320.72,610.54,324.433,601.4178,320.5617,605.5425,316.437,601.6712,320.72,610.54" style="stroke:#181818;stroke-width:1.0;"/><text fill="#000000" font-family="sans-serif" font-size="13" lengthAdjust="spacing" textLength="103" x="318.5" y="513.5669">Cancelar Pedido</text></g><!--link PedidoEnviado to PedidoCancelado--><g id="link_PedidoEnviado_PedidoCancelado"><path d="M184.13,534.32 C181.73,549.02 181.45,567.48 190.5,581 C204.32,601.65 221.95,612.4766 245.1,620.3566 " fill="none" id="PedidoEnviado-to-PedidoCancelado" style="stroke:#181818;stroke-width:1.0;"/><polygon fill="#181818" points="250.78,622.29,243.549,615.6033,246.0467,620.6788,240.9711,623.1765,250.78,622.29" style="stroke:#181818;stroke-width:1.0;"/><text fill="#000000" font-family="sans-serif" font-size="13" lengthAdjust="spacing" textLength="103" x="191.5" y="577.0669">Cancelar Pedido</text></g><!--link PedidoEntrege to PedidoDevolvido--><g id="link_PedidoEntrege_PedidoDevolvido"><path d="M68.19,661.33 C67.21,675.05 66.5,692.49 67.5,708 C68.13,717.72 68.5567,722.4168 69.8367,731.6568 " fill="none" id="PedidoEntrege-to-PedidoDevolvido" style="stroke:#181818;stroke-width:1.0;"/><polygon fill="#181818" points="70.66,737.6,73.3872,728.1363,69.9739,732.6473,65.4629,729.234,70.66,737.6" style="stroke:#181818;stroke-width:1.0;"/><text fill="#000000" font-family="sans-serif" font-size="13" lengthAdjust="spacing" textLength="103" x="68.5" y="704.0669">Devolver Pedido</text></g><!--link PedidoCancelado to *end*--><g id="link_PedidoCancelado_*end*"><path d="M309.44,661.21 C291.71,696.44 257.16,763.65 224.5,819 C218.02,829.99 213.2925,837.2607 207.8725,845.2707 " fill="none" id="PedidoCancelado-to-*end*" style="stroke:#181818;stroke-width:1.0;"/><polygon fill="#181818" points="204.51,850.24,212.8666,845.0277,207.3121,846.0989,206.2409,840.5444,204.51,850.24" style="stroke:#181818;stroke-width:1.0;"/></g><!--link PedidoEntrege to *end*--><g id="link_PedidoEntrege_*end*"><path d="M132.33,656.25 C149.13,664.39 165.66,675.65 176.5,691 C211.8,740.98 205.1195,814.7119 201.0495,842.8319 " fill="none" id="PedidoEntrege-to-*end*" style="stroke:#181818;stroke-width:1.0;"/><polygon fill="#181818" points="200.19,848.77,205.4379,840.4358,200.9062,843.8216,197.5204,839.2898,200.19,848.77" style="stroke:#181818;stroke-width:1.0;"/></g><!--link PedidoDevolvido to *end*--><g id="link_PedidoDevolvido_*end*"><path d="M106.43,788.46 C134.42,809.91 168.4271,835.961 185.3171,848.901 " fill="none" id="PedidoDevolvido-to-*end*" style="stroke:#181818;stroke-width:1.0;"/><polygon fill="#181818" points="190.08,852.55,185.3684,843.9013,186.1109,849.5092,180.503,850.2518,190.08,852.55" style="stroke:#181818;stroke-width:1.0;"/></g><!--SRC=[ZP0z3eCm38Ntd28p4XVeKAcYtL5NnE0IDue4YHHHpjycCGcaGBlvvtssdvkYvMLvvZKA9Knb5GZ3Jzm5befirVFgYto15Q25gK72W7fqKD3n86HR6hzfpYgZdyeEj90Ic_fiIvbklUc9ZlLHTktSNUf7Yn8_-Zjs-C08hFqjdW6wmvxE2t5aTitz98zD7P8xnlvXWlN4N74o_QGy4-BlVyIn3ckADXkMbTD4ghy1]--></g></svg>